<mxfile host="Electron" agent="Mozilla/5.0 (Windows NT 10.0; Win64; x64) AppleWebKit/537.36 (KHTML, like Gecko) draw.io/25.0.2 Chrome/128.0.6613.186 Electron/32.2.5 Safari/537.36" version="25.0.2">
  <diagram name="Page-1" id="kumM72xPlchq_UfVNXWq">
    <mxGraphModel dx="1909" dy="939" grid="1" gridSize="10" guides="1" tooltips="1" connect="1" arrows="1" fold="1" page="1" pageScale="1" pageWidth="1800" pageHeight="1500" math="0" shadow="0">
      <root>
        <mxCell id="0" />
        <mxCell id="1" parent="0" />
        <mxCell id="7EwXCvWY91xCTT4BX3pC-5" value="Feats" style="swimlane;fontStyle=0;childLayout=stackLayout;horizontal=1;startSize=20;horizontalStack=0;resizeParent=1;resizeParentMax=0;resizeLast=0;collapsible=0;marginBottom=0;whiteSpace=wrap;html=1;fontFamily=Helvetica;fontSize=11;fontColor=default;labelBackgroundColor=default;rounded=1;" parent="1" vertex="1">
          <mxGeometry x="140" y="80" width="140" height="340" as="geometry" />
        </mxCell>
        <mxCell id="7EwXCvWY91xCTT4BX3pC-6" value="Display Emotions" style="text;strokeColor=none;fillColor=none;align=left;verticalAlign=middle;spacingLeft=4;spacingRight=4;overflow=hidden;points=[[0,0.5],[1,0.5]];portConstraint=eastwest;rotatable=0;whiteSpace=wrap;html=1;fontFamily=Helvetica;fontSize=11;fontColor=default;labelBackgroundColor=default;" parent="7EwXCvWY91xCTT4BX3pC-5" vertex="1">
          <mxGeometry y="20" width="140" height="20" as="geometry" />
        </mxCell>
        <mxCell id="7EwXCvWY91xCTT4BX3pC-7" value="Atmospheric Lighting" style="text;strokeColor=none;fillColor=none;align=left;verticalAlign=middle;spacingLeft=4;spacingRight=4;overflow=hidden;points=[[0,0.5],[1,0.5]];portConstraint=eastwest;rotatable=0;whiteSpace=wrap;html=1;fontFamily=Helvetica;fontSize=11;fontColor=default;labelBackgroundColor=default;" parent="7EwXCvWY91xCTT4BX3pC-5" vertex="1">
          <mxGeometry y="40" width="140" height="20" as="geometry" />
        </mxCell>
        <mxCell id="7EwXCvWY91xCTT4BX3pC-8" value="Edge Lighting" style="text;strokeColor=none;fillColor=none;align=left;verticalAlign=middle;spacingLeft=4;spacingRight=4;overflow=hidden;points=[[0,0.5],[1,0.5]];portConstraint=eastwest;rotatable=0;whiteSpace=wrap;html=1;fontFamily=Helvetica;fontSize=11;fontColor=default;labelBackgroundColor=default;" parent="7EwXCvWY91xCTT4BX3pC-5" vertex="1">
          <mxGeometry y="60" width="140" height="20" as="geometry" />
        </mxCell>
        <mxCell id="7EwXCvWY91xCTT4BX3pC-13" value="Voice Modulation" style="text;strokeColor=none;fillColor=none;align=left;verticalAlign=middle;spacingLeft=4;spacingRight=4;overflow=hidden;points=[[0,0.5],[1,0.5]];portConstraint=eastwest;rotatable=0;whiteSpace=wrap;html=1;fontFamily=Helvetica;fontSize=11;fontColor=default;labelBackgroundColor=default;" parent="7EwXCvWY91xCTT4BX3pC-5" vertex="1">
          <mxGeometry y="80" width="140" height="20" as="geometry" />
        </mxCell>
        <mxCell id="7EwXCvWY91xCTT4BX3pC-15" value="Phone Bluetooth Audio" style="text;strokeColor=none;fillColor=none;align=left;verticalAlign=middle;spacingLeft=4;spacingRight=4;overflow=hidden;points=[[0,0.5],[1,0.5]];portConstraint=eastwest;rotatable=0;whiteSpace=wrap;html=1;fontFamily=Helvetica;fontSize=11;fontColor=default;labelBackgroundColor=default;" parent="7EwXCvWY91xCTT4BX3pC-5" vertex="1">
          <mxGeometry y="100" width="140" height="20" as="geometry" />
        </mxCell>
        <mxCell id="7EwXCvWY91xCTT4BX3pC-14" value="User Detection" style="text;strokeColor=none;fillColor=none;align=left;verticalAlign=middle;spacingLeft=4;spacingRight=4;overflow=hidden;points=[[0,0.5],[1,0.5]];portConstraint=eastwest;rotatable=0;whiteSpace=wrap;html=1;fontFamily=Helvetica;fontSize=11;fontColor=default;labelBackgroundColor=default;" parent="7EwXCvWY91xCTT4BX3pC-5" vertex="1">
          <mxGeometry y="120" width="140" height="20" as="geometry" />
        </mxCell>
        <mxCell id="7EwXCvWY91xCTT4BX3pC-12" value="Standard Display Mounts" style="text;strokeColor=none;fillColor=none;align=left;verticalAlign=middle;spacingLeft=4;spacingRight=4;overflow=hidden;points=[[0,0.5],[1,0.5]];portConstraint=eastwest;rotatable=0;whiteSpace=wrap;html=1;fontFamily=Helvetica;fontSize=11;fontColor=default;labelBackgroundColor=default;" parent="7EwXCvWY91xCTT4BX3pC-5" vertex="1">
          <mxGeometry y="140" width="140" height="20" as="geometry" />
        </mxCell>
        <mxCell id="7EwXCvWY91xCTT4BX3pC-11" value="Power Monitoring" style="text;strokeColor=none;fillColor=none;align=left;verticalAlign=middle;spacingLeft=4;spacingRight=4;overflow=hidden;points=[[0,0.5],[1,0.5]];portConstraint=eastwest;rotatable=0;whiteSpace=wrap;html=1;fontFamily=Helvetica;fontSize=11;fontColor=default;labelBackgroundColor=default;" parent="7EwXCvWY91xCTT4BX3pC-5" vertex="1">
          <mxGeometry y="160" width="140" height="20" as="geometry" />
        </mxCell>
        <mxCell id="7EwXCvWY91xCTT4BX3pC-10" value="Cooling System" style="text;strokeColor=none;fillColor=none;align=left;verticalAlign=middle;spacingLeft=4;spacingRight=4;overflow=hidden;points=[[0,0.5],[1,0.5]];portConstraint=eastwest;rotatable=0;whiteSpace=wrap;html=1;fontFamily=Helvetica;fontSize=11;fontColor=default;labelBackgroundColor=default;" parent="7EwXCvWY91xCTT4BX3pC-5" vertex="1">
          <mxGeometry y="180" width="140" height="20" as="geometry" />
        </mxCell>
        <mxCell id="7EwXCvWY91xCTT4BX3pC-21" value="Capacitive Touch Boop" style="text;strokeColor=none;fillColor=none;align=left;verticalAlign=middle;spacingLeft=4;spacingRight=4;overflow=hidden;points=[[0,0.5],[1,0.5]];portConstraint=eastwest;rotatable=0;whiteSpace=wrap;html=1;fontFamily=Helvetica;fontSize=11;fontColor=default;labelBackgroundColor=default;" parent="7EwXCvWY91xCTT4BX3pC-5" vertex="1">
          <mxGeometry y="200" width="140" height="20" as="geometry" />
        </mxCell>
        <mxCell id="7EwXCvWY91xCTT4BX3pC-20" value="Idle Time Screen" style="text;strokeColor=none;fillColor=none;align=left;verticalAlign=middle;spacingLeft=4;spacingRight=4;overflow=hidden;points=[[0,0.5],[1,0.5]];portConstraint=eastwest;rotatable=0;whiteSpace=wrap;html=1;fontFamily=Helvetica;fontSize=11;fontColor=default;labelBackgroundColor=default;" parent="7EwXCvWY91xCTT4BX3pC-5" vertex="1">
          <mxGeometry y="220" width="140" height="20" as="geometry" />
        </mxCell>
        <mxCell id="7EwXCvWY91xCTT4BX3pC-19" value="Ambient Light Detection" style="text;strokeColor=none;fillColor=none;align=left;verticalAlign=middle;spacingLeft=4;spacingRight=4;overflow=hidden;points=[[0,0.5],[1,0.5]];portConstraint=eastwest;rotatable=0;whiteSpace=wrap;html=1;fontFamily=Helvetica;fontSize=11;fontColor=default;labelBackgroundColor=default;" parent="7EwXCvWY91xCTT4BX3pC-5" vertex="1">
          <mxGeometry y="240" width="140" height="20" as="geometry" />
        </mxCell>
        <mxCell id="7EwXCvWY91xCTT4BX3pC-18" value="Item 3" style="text;strokeColor=none;fillColor=none;align=left;verticalAlign=middle;spacingLeft=4;spacingRight=4;overflow=hidden;points=[[0,0.5],[1,0.5]];portConstraint=eastwest;rotatable=0;whiteSpace=wrap;html=1;fontFamily=Helvetica;fontSize=11;fontColor=default;labelBackgroundColor=default;" parent="7EwXCvWY91xCTT4BX3pC-5" vertex="1">
          <mxGeometry y="260" width="140" height="20" as="geometry" />
        </mxCell>
        <mxCell id="7EwXCvWY91xCTT4BX3pC-17" value="Item 3" style="text;strokeColor=none;fillColor=none;align=left;verticalAlign=middle;spacingLeft=4;spacingRight=4;overflow=hidden;points=[[0,0.5],[1,0.5]];portConstraint=eastwest;rotatable=0;whiteSpace=wrap;html=1;fontFamily=Helvetica;fontSize=11;fontColor=default;labelBackgroundColor=default;" parent="7EwXCvWY91xCTT4BX3pC-5" vertex="1">
          <mxGeometry y="280" width="140" height="20" as="geometry" />
        </mxCell>
        <mxCell id="7EwXCvWY91xCTT4BX3pC-16" value="Item 3" style="text;strokeColor=none;fillColor=none;align=left;verticalAlign=middle;spacingLeft=4;spacingRight=4;overflow=hidden;points=[[0,0.5],[1,0.5]];portConstraint=eastwest;rotatable=0;whiteSpace=wrap;html=1;fontFamily=Helvetica;fontSize=11;fontColor=default;labelBackgroundColor=default;" parent="7EwXCvWY91xCTT4BX3pC-5" vertex="1">
          <mxGeometry y="300" width="140" height="20" as="geometry" />
        </mxCell>
        <mxCell id="7EwXCvWY91xCTT4BX3pC-9" value="Item 3" style="text;strokeColor=none;fillColor=none;align=left;verticalAlign=middle;spacingLeft=4;spacingRight=4;overflow=hidden;points=[[0,0.5],[1,0.5]];portConstraint=eastwest;rotatable=0;whiteSpace=wrap;html=1;fontFamily=Helvetica;fontSize=11;fontColor=default;labelBackgroundColor=default;" parent="7EwXCvWY91xCTT4BX3pC-5" vertex="1">
          <mxGeometry y="320" width="140" height="20" as="geometry" />
        </mxCell>
        <mxCell id="7EwXCvWY91xCTT4BX3pC-22" value="Display" style="rounded=0;whiteSpace=wrap;html=1;" parent="1" vertex="1">
          <mxGeometry x="340" y="350" width="180" height="90" as="geometry" />
        </mxCell>
        <mxCell id="7EwXCvWY91xCTT4BX3pC-24" value="Display Driver&lt;div&gt;[FFC]&lt;/div&gt;" style="rounded=0;whiteSpace=wrap;html=1;" parent="1" vertex="1">
          <mxGeometry x="460" y="365" width="60" height="60" as="geometry" />
        </mxCell>
        <mxCell id="7EwXCvWY91xCTT4BX3pC-33" value="Display" style="rounded=0;whiteSpace=wrap;html=1;" parent="1" vertex="1">
          <mxGeometry x="340" y="460" width="180" height="90" as="geometry" />
        </mxCell>
        <mxCell id="7EwXCvWY91xCTT4BX3pC-137" value="Optional" style="edgeStyle=orthogonalEdgeStyle;rounded=0;orthogonalLoop=1;jettySize=auto;html=1;exitX=1;exitY=0.25;exitDx=0;exitDy=0;entryX=1;entryY=0.75;entryDx=0;entryDy=0;horizontal=0;" parent="1" source="7EwXCvWY91xCTT4BX3pC-34" target="7EwXCvWY91xCTT4BX3pC-24" edge="1">
          <mxGeometry relative="1" as="geometry" />
        </mxCell>
        <mxCell id="7EwXCvWY91xCTT4BX3pC-34" value="Display Driver&lt;div&gt;[FFC]&lt;/div&gt;" style="rounded=0;whiteSpace=wrap;html=1;" parent="1" vertex="1">
          <mxGeometry x="460" y="475" width="60" height="60" as="geometry" />
        </mxCell>
        <mxCell id="7EwXCvWY91xCTT4BX3pC-38" style="edgeStyle=orthogonalEdgeStyle;rounded=0;orthogonalLoop=1;jettySize=auto;html=1;exitX=0;exitY=0.75;exitDx=0;exitDy=0;entryX=1;entryY=0.5;entryDx=0;entryDy=0;" parent="1" source="7EwXCvWY91xCTT4BX3pC-36" target="7EwXCvWY91xCTT4BX3pC-34" edge="1">
          <mxGeometry relative="1" as="geometry" />
        </mxCell>
        <mxCell id="7EwXCvWY91xCTT4BX3pC-93" style="edgeStyle=orthogonalEdgeStyle;rounded=0;orthogonalLoop=1;jettySize=auto;html=1;exitX=0.5;exitY=1;exitDx=0;exitDy=0;entryX=1;entryY=0.5;entryDx=0;entryDy=0;" parent="1" source="7EwXCvWY91xCTT4BX3pC-36" target="7EwXCvWY91xCTT4BX3pC-92" edge="1">
          <mxGeometry relative="1" as="geometry" />
        </mxCell>
        <mxCell id="7EwXCvWY91xCTT4BX3pC-138" style="edgeStyle=orthogonalEdgeStyle;rounded=0;orthogonalLoop=1;jettySize=auto;html=1;exitX=0;exitY=0.25;exitDx=0;exitDy=0;entryX=1;entryY=0.5;entryDx=0;entryDy=0;" parent="1" source="7EwXCvWY91xCTT4BX3pC-36" target="7EwXCvWY91xCTT4BX3pC-24" edge="1">
          <mxGeometry relative="1" as="geometry" />
        </mxCell>
        <mxCell id="7EwXCvWY91xCTT4BX3pC-36" value="GPU" style="rounded=0;whiteSpace=wrap;html=1;" parent="1" vertex="1">
          <mxGeometry x="580" y="430" width="80" height="40" as="geometry" />
        </mxCell>
        <mxCell id="7EwXCvWY91xCTT4BX3pC-41" value="" style="endArrow=none;dashed=1;html=1;dashPattern=1 3;strokeWidth=2;rounded=0;" parent="1" edge="1">
          <mxGeometry width="50" height="50" relative="1" as="geometry">
            <mxPoint x="320" y="330" as="sourcePoint" />
            <mxPoint x="320" y="330" as="targetPoint" />
            <Array as="points">
              <mxPoint x="320" y="650" />
              <mxPoint x="680" y="650" />
              <mxPoint x="680" y="330" />
            </Array>
          </mxGeometry>
        </mxCell>
        <mxCell id="7EwXCvWY91xCTT4BX3pC-42" value="Sub Structure" style="text;html=1;align=center;verticalAlign=middle;whiteSpace=wrap;rounded=0;" parent="1" vertex="1">
          <mxGeometry x="580" y="340" width="80" height="20" as="geometry" />
        </mxCell>
        <mxCell id="7EwXCvWY91xCTT4BX3pC-46" style="edgeStyle=orthogonalEdgeStyle;rounded=0;orthogonalLoop=1;jettySize=auto;html=1;exitX=0.5;exitY=1;exitDx=0;exitDy=0;entryX=0.5;entryY=0;entryDx=0;entryDy=0;" parent="1" source="7EwXCvWY91xCTT4BX3pC-44" target="7EwXCvWY91xCTT4BX3pC-36" edge="1">
          <mxGeometry relative="1" as="geometry" />
        </mxCell>
        <mxCell id="7EwXCvWY91xCTT4BX3pC-44" value="Sensor Array&lt;div&gt;[1]&lt;/div&gt;" style="rounded=0;whiteSpace=wrap;html=1;" parent="1" vertex="1">
          <mxGeometry x="580" y="370" width="80" height="40" as="geometry" />
        </mxCell>
        <mxCell id="7EwXCvWY91xCTT4BX3pC-51" style="edgeStyle=orthogonalEdgeStyle;rounded=0;orthogonalLoop=1;jettySize=auto;html=1;exitX=0;exitY=0.5;exitDx=0;exitDy=0;entryX=1;entryY=0.5;entryDx=0;entryDy=0;startArrow=classic;startFill=1;" parent="1" source="7EwXCvWY91xCTT4BX3pC-48" target="7EwXCvWY91xCTT4BX3pC-36" edge="1">
          <mxGeometry relative="1" as="geometry" />
        </mxCell>
        <mxCell id="7EwXCvWY91xCTT4BX3pC-60" style="edgeStyle=orthogonalEdgeStyle;rounded=0;orthogonalLoop=1;jettySize=auto;html=1;exitX=0;exitY=0.75;exitDx=0;exitDy=0;entryX=1;entryY=0.5;entryDx=0;entryDy=0;startArrow=classic;startFill=1;" parent="1" source="7EwXCvWY91xCTT4BX3pC-48" target="7EwXCvWY91xCTT4BX3pC-57" edge="1">
          <mxGeometry relative="1" as="geometry" />
        </mxCell>
        <mxCell id="7EwXCvWY91xCTT4BX3pC-128" style="edgeStyle=orthogonalEdgeStyle;rounded=0;orthogonalLoop=1;jettySize=auto;html=1;exitX=0;exitY=0.25;exitDx=0;exitDy=0;entryX=1;entryY=0.5;entryDx=0;entryDy=0;startArrow=classic;startFill=1;" parent="1" source="7EwXCvWY91xCTT4BX3pC-48" target="7EwXCvWY91xCTT4BX3pC-126" edge="1">
          <mxGeometry relative="1" as="geometry" />
        </mxCell>
        <mxCell id="hdNzROFEQ-p7_2xRivTX-2" style="edgeStyle=orthogonalEdgeStyle;rounded=0;orthogonalLoop=1;jettySize=auto;html=1;exitX=0.5;exitY=1;exitDx=0;exitDy=0;entryX=0.5;entryY=0;entryDx=0;entryDy=0;startArrow=classic;startFill=1;" edge="1" parent="1" source="7EwXCvWY91xCTT4BX3pC-48" target="7EwXCvWY91xCTT4BX3pC-99">
          <mxGeometry relative="1" as="geometry" />
        </mxCell>
        <mxCell id="hdNzROFEQ-p7_2xRivTX-4" style="edgeStyle=orthogonalEdgeStyle;rounded=0;orthogonalLoop=1;jettySize=auto;html=1;exitX=1;exitY=0.5;exitDx=0;exitDy=0;entryX=0;entryY=0.5;entryDx=0;entryDy=0;" edge="1" parent="1" source="7EwXCvWY91xCTT4BX3pC-48" target="7EwXCvWY91xCTT4BX3pC-94">
          <mxGeometry relative="1" as="geometry" />
        </mxCell>
        <mxCell id="hdNzROFEQ-p7_2xRivTX-70" style="edgeStyle=orthogonalEdgeStyle;rounded=0;orthogonalLoop=1;jettySize=auto;html=1;exitX=1;exitY=0.75;exitDx=0;exitDy=0;entryX=0;entryY=0.5;entryDx=0;entryDy=0;" edge="1" parent="1" source="7EwXCvWY91xCTT4BX3pC-48" target="7EwXCvWY91xCTT4BX3pC-111">
          <mxGeometry relative="1" as="geometry" />
        </mxCell>
        <mxCell id="7EwXCvWY91xCTT4BX3pC-48" value="CPU" style="rounded=0;whiteSpace=wrap;html=1;" parent="1" vertex="1">
          <mxGeometry x="720" y="430" width="80" height="40" as="geometry" />
        </mxCell>
        <mxCell id="7EwXCvWY91xCTT4BX3pC-49" style="edgeStyle=orthogonalEdgeStyle;rounded=0;orthogonalLoop=1;jettySize=auto;html=1;exitX=0.5;exitY=1;exitDx=0;exitDy=0;entryX=0.5;entryY=0;entryDx=0;entryDy=0;" parent="1" source="7EwXCvWY91xCTT4BX3pC-50" target="7EwXCvWY91xCTT4BX3pC-48" edge="1">
          <mxGeometry relative="1" as="geometry" />
        </mxCell>
        <mxCell id="7EwXCvWY91xCTT4BX3pC-50" value="Sensor Array&lt;div&gt;[2]&lt;/div&gt;" style="rounded=0;whiteSpace=wrap;html=1;" parent="1" vertex="1">
          <mxGeometry x="720" y="370" width="80" height="40" as="geometry" />
        </mxCell>
        <mxCell id="7EwXCvWY91xCTT4BX3pC-52" value="" style="endArrow=none;dashed=1;html=1;dashPattern=1 3;strokeWidth=2;rounded=0;" parent="1" edge="1">
          <mxGeometry width="50" height="50" relative="1" as="geometry">
            <mxPoint x="700" y="330" as="sourcePoint" />
            <mxPoint x="700" y="330" as="targetPoint" />
            <Array as="points">
              <mxPoint x="700" y="550" />
              <mxPoint x="820" y="550" />
              <mxPoint x="820" y="330" />
            </Array>
          </mxGeometry>
        </mxCell>
        <mxCell id="7EwXCvWY91xCTT4BX3pC-53" value="Back Head Top" style="text;html=1;align=center;verticalAlign=middle;whiteSpace=wrap;rounded=0;" parent="1" vertex="1">
          <mxGeometry x="710" y="340" width="100" height="20" as="geometry" />
        </mxCell>
        <mxCell id="7EwXCvWY91xCTT4BX3pC-58" style="edgeStyle=orthogonalEdgeStyle;rounded=0;orthogonalLoop=1;jettySize=auto;html=1;exitX=0.5;exitY=1;exitDx=0;exitDy=0;entryX=0.5;entryY=0;entryDx=0;entryDy=0;" parent="1" source="7EwXCvWY91xCTT4BX3pC-54" target="7EwXCvWY91xCTT4BX3pC-57" edge="1">
          <mxGeometry relative="1" as="geometry" />
        </mxCell>
        <mxCell id="7EwXCvWY91xCTT4BX3pC-54" value="Sensor Array&lt;div&gt;[3]&lt;/div&gt;" style="rounded=0;whiteSpace=wrap;html=1;" parent="1" vertex="1">
          <mxGeometry x="580" y="690" width="80" height="40" as="geometry" />
        </mxCell>
        <mxCell id="7EwXCvWY91xCTT4BX3pC-55" value="Snoot" style="text;html=1;align=center;verticalAlign=middle;whiteSpace=wrap;rounded=0;" parent="1" vertex="1">
          <mxGeometry x="480" y="690" width="80" height="20" as="geometry" />
        </mxCell>
        <mxCell id="7EwXCvWY91xCTT4BX3pC-56" value="" style="endArrow=none;dashed=1;html=1;dashPattern=1 3;strokeWidth=2;rounded=0;" parent="1" edge="1">
          <mxGeometry width="50" height="50" relative="1" as="geometry">
            <mxPoint x="460" y="670" as="sourcePoint" />
            <mxPoint x="460" y="670" as="targetPoint" />
            <Array as="points">
              <mxPoint x="460" y="870" />
              <mxPoint x="680" y="870" />
              <mxPoint x="680" y="670" />
            </Array>
          </mxGeometry>
        </mxCell>
        <mxCell id="7EwXCvWY91xCTT4BX3pC-62" style="edgeStyle=orthogonalEdgeStyle;rounded=0;orthogonalLoop=1;jettySize=auto;html=1;exitX=0.5;exitY=1;exitDx=0;exitDy=0;entryX=0.5;entryY=0;entryDx=0;entryDy=0;" parent="1" source="7EwXCvWY91xCTT4BX3pC-57" target="7EwXCvWY91xCTT4BX3pC-61" edge="1">
          <mxGeometry relative="1" as="geometry" />
        </mxCell>
        <mxCell id="7EwXCvWY91xCTT4BX3pC-64" style="edgeStyle=orthogonalEdgeStyle;rounded=0;orthogonalLoop=1;jettySize=auto;html=1;exitX=0;exitY=0.5;exitDx=0;exitDy=0;entryX=1;entryY=0.5;entryDx=0;entryDy=0;" parent="1" source="7EwXCvWY91xCTT4BX3pC-57" target="7EwXCvWY91xCTT4BX3pC-63" edge="1">
          <mxGeometry relative="1" as="geometry" />
        </mxCell>
        <mxCell id="7EwXCvWY91xCTT4BX3pC-57" value="Snoot Driver" style="rounded=0;whiteSpace=wrap;html=1;" parent="1" vertex="1">
          <mxGeometry x="580" y="750" width="80" height="40" as="geometry" />
        </mxCell>
        <mxCell id="7EwXCvWY91xCTT4BX3pC-61" value="LEDS" style="rounded=0;whiteSpace=wrap;html=1;" parent="1" vertex="1">
          <mxGeometry x="580" y="810" width="80" height="40" as="geometry" />
        </mxCell>
        <mxCell id="7EwXCvWY91xCTT4BX3pC-63" value="Speaker" style="rounded=0;whiteSpace=wrap;html=1;" parent="1" vertex="1">
          <mxGeometry x="480" y="750" width="80" height="40" as="geometry" />
        </mxCell>
        <mxCell id="7EwXCvWY91xCTT4BX3pC-70" style="edgeStyle=orthogonalEdgeStyle;rounded=0;orthogonalLoop=1;jettySize=auto;html=1;exitX=0;exitY=0.5;exitDx=0;exitDy=0;entryX=1;entryY=0.25;entryDx=0;entryDy=0;startArrow=classic;startFill=1;" parent="1" source="7EwXCvWY91xCTT4BX3pC-69" target="7EwXCvWY91xCTT4BX3pC-48" edge="1">
          <mxGeometry relative="1" as="geometry" />
        </mxCell>
        <mxCell id="7EwXCvWY91xCTT4BX3pC-69" value="PDU" style="rounded=0;whiteSpace=wrap;html=1;" parent="1" vertex="1">
          <mxGeometry x="860" y="250" width="80" height="40" as="geometry" />
        </mxCell>
        <mxCell id="7EwXCvWY91xCTT4BX3pC-72" style="edgeStyle=orthogonalEdgeStyle;rounded=0;orthogonalLoop=1;jettySize=auto;html=1;exitX=0.5;exitY=1;exitDx=0;exitDy=0;entryX=0.5;entryY=0;entryDx=0;entryDy=0;" parent="1" source="7EwXCvWY91xCTT4BX3pC-71" target="7EwXCvWY91xCTT4BX3pC-69" edge="1">
          <mxGeometry relative="1" as="geometry" />
        </mxCell>
        <mxCell id="7EwXCvWY91xCTT4BX3pC-71" value="Sensor Array&lt;div&gt;[4]&lt;/div&gt;" style="rounded=0;whiteSpace=wrap;html=1;" parent="1" vertex="1">
          <mxGeometry x="860" y="190" width="80" height="40" as="geometry" />
        </mxCell>
        <mxCell id="7EwXCvWY91xCTT4BX3pC-74" style="edgeStyle=orthogonalEdgeStyle;rounded=0;orthogonalLoop=1;jettySize=auto;html=1;exitX=0;exitY=0.5;exitDx=0;exitDy=0;entryX=1;entryY=0.5;entryDx=0;entryDy=0;" parent="1" source="7EwXCvWY91xCTT4BX3pC-73" target="7EwXCvWY91xCTT4BX3pC-69" edge="1">
          <mxGeometry relative="1" as="geometry" />
        </mxCell>
        <mxCell id="7EwXCvWY91xCTT4BX3pC-73" value="Buck Converter" style="rounded=0;whiteSpace=wrap;html=1;" parent="1" vertex="1">
          <mxGeometry x="960" y="250" width="80" height="40" as="geometry" />
        </mxCell>
        <mxCell id="7EwXCvWY91xCTT4BX3pC-76" style="edgeStyle=orthogonalEdgeStyle;rounded=0;orthogonalLoop=1;jettySize=auto;html=1;exitX=0;exitY=0.5;exitDx=0;exitDy=0;entryX=1;entryY=0.5;entryDx=0;entryDy=0;" parent="1" source="7EwXCvWY91xCTT4BX3pC-75" target="7EwXCvWY91xCTT4BX3pC-73" edge="1">
          <mxGeometry relative="1" as="geometry" />
        </mxCell>
        <mxCell id="7EwXCvWY91xCTT4BX3pC-75" value="BMS" style="rounded=0;whiteSpace=wrap;html=1;" parent="1" vertex="1">
          <mxGeometry x="1060" y="250" width="80" height="40" as="geometry" />
        </mxCell>
        <mxCell id="7EwXCvWY91xCTT4BX3pC-79" style="edgeStyle=orthogonalEdgeStyle;rounded=0;orthogonalLoop=1;jettySize=auto;html=1;exitX=0.5;exitY=1;exitDx=0;exitDy=0;entryX=0.25;entryY=0;entryDx=0;entryDy=0;" parent="1" source="7EwXCvWY91xCTT4BX3pC-77" target="7EwXCvWY91xCTT4BX3pC-75" edge="1">
          <mxGeometry relative="1" as="geometry" />
        </mxCell>
        <mxCell id="7EwXCvWY91xCTT4BX3pC-77" value="Battery" style="rounded=0;whiteSpace=wrap;html=1;" parent="1" vertex="1">
          <mxGeometry x="1010" y="170" width="80" height="40" as="geometry" />
        </mxCell>
        <mxCell id="7EwXCvWY91xCTT4BX3pC-87" style="edgeStyle=orthogonalEdgeStyle;rounded=0;orthogonalLoop=1;jettySize=auto;html=1;exitX=0.5;exitY=1;exitDx=0;exitDy=0;entryX=0.75;entryY=0;entryDx=0;entryDy=0;" parent="1" source="7EwXCvWY91xCTT4BX3pC-78" target="7EwXCvWY91xCTT4BX3pC-75" edge="1">
          <mxGeometry relative="1" as="geometry" />
        </mxCell>
        <mxCell id="7EwXCvWY91xCTT4BX3pC-78" value="Battery" style="rounded=0;whiteSpace=wrap;html=1;" parent="1" vertex="1">
          <mxGeometry x="1110" y="170" width="80" height="40" as="geometry" />
        </mxCell>
        <mxCell id="7EwXCvWY91xCTT4BX3pC-83" style="edgeStyle=orthogonalEdgeStyle;rounded=0;orthogonalLoop=1;jettySize=auto;html=1;exitX=0;exitY=0.5;exitDx=0;exitDy=0;entryX=1;entryY=0.25;entryDx=0;entryDy=0;" parent="1" source="7EwXCvWY91xCTT4BX3pC-81" target="7EwXCvWY91xCTT4BX3pC-75" edge="1">
          <mxGeometry relative="1" as="geometry" />
        </mxCell>
        <mxCell id="7EwXCvWY91xCTT4BX3pC-81" value="Battery" style="rounded=0;whiteSpace=wrap;html=1;" parent="1" vertex="1">
          <mxGeometry x="1180" y="220" width="80" height="40" as="geometry" />
        </mxCell>
        <mxCell id="7EwXCvWY91xCTT4BX3pC-84" style="edgeStyle=orthogonalEdgeStyle;rounded=0;orthogonalLoop=1;jettySize=auto;html=1;exitX=0;exitY=0.5;exitDx=0;exitDy=0;entryX=1;entryY=0.75;entryDx=0;entryDy=0;" parent="1" source="7EwXCvWY91xCTT4BX3pC-82" target="7EwXCvWY91xCTT4BX3pC-75" edge="1">
          <mxGeometry relative="1" as="geometry" />
        </mxCell>
        <mxCell id="7EwXCvWY91xCTT4BX3pC-82" value="Battery" style="rounded=0;whiteSpace=wrap;html=1;" parent="1" vertex="1">
          <mxGeometry x="1180" y="280" width="80" height="40" as="geometry" />
        </mxCell>
        <mxCell id="7EwXCvWY91xCTT4BX3pC-89" style="edgeStyle=orthogonalEdgeStyle;rounded=0;orthogonalLoop=1;jettySize=auto;html=1;exitX=0.5;exitY=0;exitDx=0;exitDy=0;entryX=0.5;entryY=1;entryDx=0;entryDy=0;" parent="1" source="7EwXCvWY91xCTT4BX3pC-88" target="7EwXCvWY91xCTT4BX3pC-75" edge="1">
          <mxGeometry relative="1" as="geometry" />
        </mxCell>
        <mxCell id="7EwXCvWY91xCTT4BX3pC-88" value="USBC PD&lt;div&gt;Driver&lt;/div&gt;" style="rounded=0;whiteSpace=wrap;html=1;" parent="1" vertex="1">
          <mxGeometry x="1060" y="310" width="80" height="40" as="geometry" />
        </mxCell>
        <mxCell id="7EwXCvWY91xCTT4BX3pC-90" value="" style="endArrow=none;dashed=1;html=1;dashPattern=1 3;strokeWidth=2;rounded=0;" parent="1" edge="1">
          <mxGeometry width="50" height="50" relative="1" as="geometry">
            <mxPoint x="840" y="150" as="sourcePoint" />
            <mxPoint x="840" y="150" as="targetPoint" />
            <Array as="points">
              <mxPoint x="840" y="370" />
              <mxPoint x="1280" y="370" />
              <mxPoint x="1280" y="150" />
            </Array>
          </mxGeometry>
        </mxCell>
        <mxCell id="7EwXCvWY91xCTT4BX3pC-91" value="Fins" style="text;html=1;align=center;verticalAlign=middle;whiteSpace=wrap;rounded=0;" parent="1" vertex="1">
          <mxGeometry x="860" y="160" width="80" height="20" as="geometry" />
        </mxCell>
        <mxCell id="7EwXCvWY91xCTT4BX3pC-92" value="HUD Display" style="rounded=0;whiteSpace=wrap;html=1;" parent="1" vertex="1">
          <mxGeometry x="400" y="570" width="120" height="60" as="geometry" />
        </mxCell>
        <mxCell id="7EwXCvWY91xCTT4BX3pC-94" value="LEDS" style="rounded=0;whiteSpace=wrap;html=1;" parent="1" vertex="1">
          <mxGeometry x="860" y="430" width="80" height="40" as="geometry" />
        </mxCell>
        <mxCell id="7EwXCvWY91xCTT4BX3pC-95" value="Neck" style="text;html=1;align=center;verticalAlign=middle;whiteSpace=wrap;rounded=0;" parent="1" vertex="1">
          <mxGeometry x="860" y="400" width="80" height="20" as="geometry" />
        </mxCell>
        <mxCell id="7EwXCvWY91xCTT4BX3pC-96" value="" style="endArrow=none;dashed=1;html=1;dashPattern=1 3;strokeWidth=2;rounded=0;" parent="1" edge="1">
          <mxGeometry width="50" height="50" relative="1" as="geometry">
            <mxPoint x="840" y="390" as="sourcePoint" />
            <mxPoint x="840" y="390" as="targetPoint" />
            <Array as="points">
              <mxPoint x="840" y="490" />
              <mxPoint x="960" y="490" />
              <mxPoint x="960" y="390" />
            </Array>
          </mxGeometry>
        </mxCell>
        <mxCell id="7EwXCvWY91xCTT4BX3pC-99" value="CAN Driver" style="rounded=0;whiteSpace=wrap;html=1;" parent="1" vertex="1">
          <mxGeometry x="720" y="490" width="80" height="40" as="geometry" />
        </mxCell>
        <mxCell id="7EwXCvWY91xCTT4BX3pC-104" value="" style="endArrow=none;dashed=1;html=1;dashPattern=1 3;strokeWidth=2;rounded=0;" parent="1" edge="1">
          <mxGeometry width="50" height="50" relative="1" as="geometry">
            <mxPoint x="840" y="510" as="sourcePoint" />
            <mxPoint x="840" y="510" as="targetPoint" />
            <Array as="points">
              <mxPoint x="840" y="610" />
              <mxPoint x="960" y="610" />
              <mxPoint x="960" y="510" />
            </Array>
          </mxGeometry>
        </mxCell>
        <mxCell id="7EwXCvWY91xCTT4BX3pC-105" value="Back Head Bot" style="text;html=1;align=center;verticalAlign=middle;whiteSpace=wrap;rounded=0;" parent="1" vertex="1">
          <mxGeometry x="850" y="520" width="100" height="20" as="geometry" />
        </mxCell>
        <mxCell id="7EwXCvWY91xCTT4BX3pC-107" value="LEDS" style="rounded=0;whiteSpace=wrap;html=1;" parent="1" vertex="1">
          <mxGeometry x="1000" y="550" width="80" height="40" as="geometry" />
        </mxCell>
        <mxCell id="7EwXCvWY91xCTT4BX3pC-108" value="" style="endArrow=none;dashed=1;html=1;dashPattern=1 3;strokeWidth=2;rounded=0;" parent="1" edge="1">
          <mxGeometry width="50" height="50" relative="1" as="geometry">
            <mxPoint x="980" y="510" as="sourcePoint" />
            <mxPoint x="980" y="510" as="targetPoint" />
            <Array as="points">
              <mxPoint x="980" y="610" />
              <mxPoint x="1100" y="610" />
              <mxPoint x="1100" y="510" />
            </Array>
          </mxGeometry>
        </mxCell>
        <mxCell id="7EwXCvWY91xCTT4BX3pC-109" value="Jaw" style="text;html=1;align=center;verticalAlign=middle;whiteSpace=wrap;rounded=0;" parent="1" vertex="1">
          <mxGeometry x="990" y="520" width="100" height="20" as="geometry" />
        </mxCell>
        <mxCell id="7EwXCvWY91xCTT4BX3pC-112" style="edgeStyle=orthogonalEdgeStyle;rounded=0;orthogonalLoop=1;jettySize=auto;html=1;exitX=1;exitY=0.5;exitDx=0;exitDy=0;entryX=0;entryY=0.5;entryDx=0;entryDy=0;" parent="1" source="7EwXCvWY91xCTT4BX3pC-111" target="7EwXCvWY91xCTT4BX3pC-107" edge="1">
          <mxGeometry relative="1" as="geometry" />
        </mxCell>
        <mxCell id="7EwXCvWY91xCTT4BX3pC-111" value="Signal&lt;div&gt;Bypass&lt;/div&gt;" style="rounded=0;whiteSpace=wrap;html=1;" parent="1" vertex="1">
          <mxGeometry x="860" y="550" width="80" height="40" as="geometry" />
        </mxCell>
        <mxCell id="7EwXCvWY91xCTT4BX3pC-117" value="UNDER DEVELOPED" style="swimlane;fontStyle=0;childLayout=stackLayout;horizontal=1;startSize=20;horizontalStack=0;resizeParent=1;resizeParentMax=0;resizeLast=0;collapsible=0;marginBottom=0;whiteSpace=wrap;html=1;fontFamily=Helvetica;fontSize=11;fontColor=default;labelBackgroundColor=default;rounded=1;" parent="1" vertex="1">
          <mxGeometry x="140" y="480" width="140" height="140" as="geometry" />
        </mxCell>
        <mxCell id="7EwXCvWY91xCTT4BX3pC-119" value="Jaw Open Detection" style="text;strokeColor=none;fillColor=none;align=left;verticalAlign=middle;spacingLeft=4;spacingRight=4;overflow=hidden;points=[[0,0.5],[1,0.5]];portConstraint=eastwest;rotatable=0;whiteSpace=wrap;html=1;fontFamily=Helvetica;fontSize=11;fontColor=default;labelBackgroundColor=default;" parent="7EwXCvWY91xCTT4BX3pC-117" vertex="1">
          <mxGeometry y="20" width="140" height="20" as="geometry" />
        </mxCell>
        <mxCell id="7EwXCvWY91xCTT4BX3pC-125" value="User Headphones" style="text;strokeColor=none;fillColor=none;align=left;verticalAlign=middle;spacingLeft=4;spacingRight=4;overflow=hidden;points=[[0,0.5],[1,0.5]];portConstraint=eastwest;rotatable=0;whiteSpace=wrap;html=1;fontFamily=Helvetica;fontSize=11;fontColor=default;labelBackgroundColor=default;" parent="7EwXCvWY91xCTT4BX3pC-117" vertex="1">
          <mxGeometry y="40" width="140" height="20" as="geometry" />
        </mxCell>
        <mxCell id="7EwXCvWY91xCTT4BX3pC-124" value="Tongue LEDS" style="text;strokeColor=none;fillColor=none;align=left;verticalAlign=middle;spacingLeft=4;spacingRight=4;overflow=hidden;points=[[0,0.5],[1,0.5]];portConstraint=eastwest;rotatable=0;whiteSpace=wrap;html=1;fontFamily=Helvetica;fontSize=11;fontColor=default;labelBackgroundColor=default;" parent="7EwXCvWY91xCTT4BX3pC-117" vertex="1">
          <mxGeometry y="60" width="140" height="20" as="geometry" />
        </mxCell>
        <mxCell id="7EwXCvWY91xCTT4BX3pC-123" value="Control Buttons" style="text;strokeColor=none;fillColor=none;align=left;verticalAlign=middle;spacingLeft=4;spacingRight=4;overflow=hidden;points=[[0,0.5],[1,0.5]];portConstraint=eastwest;rotatable=0;whiteSpace=wrap;html=1;fontFamily=Helvetica;fontSize=11;fontColor=default;labelBackgroundColor=default;" parent="7EwXCvWY91xCTT4BX3pC-117" vertex="1">
          <mxGeometry y="80" width="140" height="20" as="geometry" />
        </mxCell>
        <mxCell id="7EwXCvWY91xCTT4BX3pC-122" value="Item 3" style="text;strokeColor=none;fillColor=none;align=left;verticalAlign=middle;spacingLeft=4;spacingRight=4;overflow=hidden;points=[[0,0.5],[1,0.5]];portConstraint=eastwest;rotatable=0;whiteSpace=wrap;html=1;fontFamily=Helvetica;fontSize=11;fontColor=default;labelBackgroundColor=default;" parent="7EwXCvWY91xCTT4BX3pC-117" vertex="1">
          <mxGeometry y="100" width="140" height="20" as="geometry" />
        </mxCell>
        <mxCell id="7EwXCvWY91xCTT4BX3pC-121" value="Item 3" style="text;strokeColor=none;fillColor=none;align=left;verticalAlign=middle;spacingLeft=4;spacingRight=4;overflow=hidden;points=[[0,0.5],[1,0.5]];portConstraint=eastwest;rotatable=0;whiteSpace=wrap;html=1;fontFamily=Helvetica;fontSize=11;fontColor=default;labelBackgroundColor=default;" parent="7EwXCvWY91xCTT4BX3pC-117" vertex="1">
          <mxGeometry y="120" width="140" height="20" as="geometry" />
        </mxCell>
        <mxCell id="7EwXCvWY91xCTT4BX3pC-131" style="edgeStyle=orthogonalEdgeStyle;rounded=0;orthogonalLoop=1;jettySize=auto;html=1;exitX=0;exitY=0.5;exitDx=0;exitDy=0;entryX=1;entryY=0.5;entryDx=0;entryDy=0;" parent="1" source="7EwXCvWY91xCTT4BX3pC-126" target="7EwXCvWY91xCTT4BX3pC-130" edge="1">
          <mxGeometry relative="1" as="geometry" />
        </mxCell>
        <mxCell id="7EwXCvWY91xCTT4BX3pC-126" value="Mask Driver" style="rounded=0;whiteSpace=wrap;html=1;" parent="1" vertex="1">
          <mxGeometry x="580" y="190" width="80" height="40" as="geometry" />
        </mxCell>
        <mxCell id="7EwXCvWY91xCTT4BX3pC-127" value="Anonymous Mask" style="text;html=1;align=center;verticalAlign=middle;whiteSpace=wrap;rounded=0;" parent="1" vertex="1">
          <mxGeometry x="470" y="140" width="100" height="20" as="geometry" />
        </mxCell>
        <mxCell id="7EwXCvWY91xCTT4BX3pC-130" value="Ventillation&lt;div&gt;Fans&lt;/div&gt;" style="rounded=0;whiteSpace=wrap;html=1;" parent="1" vertex="1">
          <mxGeometry x="480" y="190" width="80" height="40" as="geometry" />
        </mxCell>
        <mxCell id="7EwXCvWY91xCTT4BX3pC-133" style="edgeStyle=orthogonalEdgeStyle;rounded=0;orthogonalLoop=1;jettySize=auto;html=1;exitX=0.5;exitY=0;exitDx=0;exitDy=0;entryX=0.5;entryY=1;entryDx=0;entryDy=0;" parent="1" source="7EwXCvWY91xCTT4BX3pC-132" target="7EwXCvWY91xCTT4BX3pC-126" edge="1">
          <mxGeometry relative="1" as="geometry" />
        </mxCell>
        <mxCell id="7EwXCvWY91xCTT4BX3pC-132" value="Microphone" style="rounded=0;whiteSpace=wrap;html=1;" parent="1" vertex="1">
          <mxGeometry x="580" y="250" width="80" height="40" as="geometry" />
        </mxCell>
        <mxCell id="7EwXCvWY91xCTT4BX3pC-136" style="edgeStyle=orthogonalEdgeStyle;rounded=0;orthogonalLoop=1;jettySize=auto;html=1;exitX=0.5;exitY=1;exitDx=0;exitDy=0;entryX=0.5;entryY=0;entryDx=0;entryDy=0;" parent="1" source="7EwXCvWY91xCTT4BX3pC-134" target="7EwXCvWY91xCTT4BX3pC-126" edge="1">
          <mxGeometry relative="1" as="geometry" />
        </mxCell>
        <mxCell id="7EwXCvWY91xCTT4BX3pC-134" value="Sensor Array&lt;div&gt;[5]&lt;/div&gt;" style="rounded=0;whiteSpace=wrap;html=1;" parent="1" vertex="1">
          <mxGeometry x="580" y="130" width="80" height="40" as="geometry" />
        </mxCell>
        <mxCell id="7EwXCvWY91xCTT4BX3pC-135" value="" style="endArrow=none;dashed=1;html=1;dashPattern=1 3;strokeWidth=2;rounded=0;" parent="1" edge="1">
          <mxGeometry width="50" height="50" relative="1" as="geometry">
            <mxPoint x="460" y="110" as="sourcePoint" />
            <mxPoint x="460" y="110" as="targetPoint" />
            <Array as="points">
              <mxPoint x="460" y="310" />
              <mxPoint x="680" y="310" />
              <mxPoint x="680" y="110" />
            </Array>
          </mxGeometry>
        </mxCell>
        <mxCell id="hdNzROFEQ-p7_2xRivTX-12" value="Sensor Array [1]" style="swimlane;fontStyle=0;childLayout=stackLayout;horizontal=1;startSize=20;horizontalStack=0;resizeParent=1;resizeParentMax=0;resizeLast=0;collapsible=0;marginBottom=0;whiteSpace=wrap;html=1;fontFamily=Helvetica;fontSize=11;fontColor=default;labelBackgroundColor=default;" vertex="1" parent="1">
          <mxGeometry x="1320" y="280" width="140" height="140" as="geometry" />
        </mxCell>
        <mxCell id="hdNzROFEQ-p7_2xRivTX-7" value="Accelerometer" style="text;strokeColor=none;fillColor=none;align=left;verticalAlign=middle;spacingLeft=4;spacingRight=4;overflow=hidden;points=[[0,0.5],[1,0.5]];portConstraint=eastwest;rotatable=0;whiteSpace=wrap;html=1;fontFamily=Helvetica;fontSize=11;fontColor=default;labelBackgroundColor=default;" vertex="1" parent="hdNzROFEQ-p7_2xRivTX-12">
          <mxGeometry y="20" width="140" height="20" as="geometry" />
        </mxCell>
        <mxCell id="hdNzROFEQ-p7_2xRivTX-8" value="Gyroscope" style="text;strokeColor=none;fillColor=none;align=left;verticalAlign=middle;spacingLeft=4;spacingRight=4;overflow=hidden;points=[[0,0.5],[1,0.5]];portConstraint=eastwest;rotatable=0;whiteSpace=wrap;html=1;fontFamily=Helvetica;fontSize=11;fontColor=default;labelBackgroundColor=default;" vertex="1" parent="hdNzROFEQ-p7_2xRivTX-12">
          <mxGeometry y="40" width="140" height="20" as="geometry" />
        </mxCell>
        <mxCell id="hdNzROFEQ-p7_2xRivTX-10" value="Humidity" style="text;strokeColor=none;fillColor=none;align=left;verticalAlign=middle;spacingLeft=4;spacingRight=4;overflow=hidden;points=[[0,0.5],[1,0.5]];portConstraint=eastwest;rotatable=0;whiteSpace=wrap;html=1;fontFamily=Helvetica;fontSize=11;fontColor=default;labelBackgroundColor=default;" vertex="1" parent="hdNzROFEQ-p7_2xRivTX-12">
          <mxGeometry y="60" width="140" height="20" as="geometry" />
        </mxCell>
        <mxCell id="hdNzROFEQ-p7_2xRivTX-11" value="Capacitive Touch" style="text;strokeColor=none;fillColor=none;align=left;verticalAlign=middle;spacingLeft=4;spacingRight=4;overflow=hidden;points=[[0,0.5],[1,0.5]];portConstraint=eastwest;rotatable=0;whiteSpace=wrap;html=1;fontFamily=Helvetica;fontSize=11;fontColor=default;labelBackgroundColor=default;" vertex="1" parent="hdNzROFEQ-p7_2xRivTX-12">
          <mxGeometry y="80" width="140" height="20" as="geometry" />
        </mxCell>
        <mxCell id="hdNzROFEQ-p7_2xRivTX-37" value="Light Meter" style="text;strokeColor=none;fillColor=none;align=left;verticalAlign=middle;spacingLeft=4;spacingRight=4;overflow=hidden;points=[[0,0.5],[1,0.5]];portConstraint=eastwest;rotatable=0;whiteSpace=wrap;html=1;fontFamily=Helvetica;fontSize=11;fontColor=default;labelBackgroundColor=default;" vertex="1" parent="hdNzROFEQ-p7_2xRivTX-12">
          <mxGeometry y="100" width="140" height="20" as="geometry" />
        </mxCell>
        <mxCell id="hdNzROFEQ-p7_2xRivTX-35" value="RTC" style="text;strokeColor=none;fillColor=none;align=left;verticalAlign=middle;spacingLeft=4;spacingRight=4;overflow=hidden;points=[[0,0.5],[1,0.5]];portConstraint=eastwest;rotatable=0;whiteSpace=wrap;html=1;fontFamily=Helvetica;fontSize=11;fontColor=default;labelBackgroundColor=default;" vertex="1" parent="hdNzROFEQ-p7_2xRivTX-12">
          <mxGeometry y="120" width="140" height="20" as="geometry" />
        </mxCell>
        <mxCell id="hdNzROFEQ-p7_2xRivTX-16" value="Purpose" style="swimlane;fontStyle=0;childLayout=stackLayout;horizontal=1;startSize=20;horizontalStack=0;resizeParent=1;resizeParentMax=0;resizeLast=0;collapsible=0;marginBottom=0;whiteSpace=wrap;html=1;fontFamily=Helvetica;fontSize=11;fontColor=default;labelBackgroundColor=default;" vertex="1" parent="1">
          <mxGeometry x="1460" y="280" width="220" height="140" as="geometry" />
        </mxCell>
        <mxCell id="hdNzROFEQ-p7_2xRivTX-17" value="Animation" style="text;strokeColor=none;fillColor=none;align=left;verticalAlign=middle;spacingLeft=4;spacingRight=4;overflow=hidden;points=[[0,0.5],[1,0.5]];portConstraint=eastwest;rotatable=0;whiteSpace=wrap;html=1;fontFamily=Helvetica;fontSize=11;fontColor=default;labelBackgroundColor=default;" vertex="1" parent="hdNzROFEQ-p7_2xRivTX-16">
          <mxGeometry y="20" width="220" height="20" as="geometry" />
        </mxCell>
        <mxCell id="hdNzROFEQ-p7_2xRivTX-18" value="Animation" style="text;strokeColor=none;fillColor=none;align=left;verticalAlign=middle;spacingLeft=4;spacingRight=4;overflow=hidden;points=[[0,0.5],[1,0.5]];portConstraint=eastwest;rotatable=0;whiteSpace=wrap;html=1;fontFamily=Helvetica;fontSize=11;fontColor=default;labelBackgroundColor=default;" vertex="1" parent="hdNzROFEQ-p7_2xRivTX-16">
          <mxGeometry y="40" width="220" height="20" as="geometry" />
        </mxCell>
        <mxCell id="hdNzROFEQ-p7_2xRivTX-19" value="Safety: Display off if humidity is too high" style="text;strokeColor=none;fillColor=none;align=left;verticalAlign=middle;spacingLeft=4;spacingRight=4;overflow=hidden;points=[[0,0.5],[1,0.5]];portConstraint=eastwest;rotatable=0;whiteSpace=wrap;html=1;fontFamily=Helvetica;fontSize=11;fontColor=default;labelBackgroundColor=default;" vertex="1" parent="hdNzROFEQ-p7_2xRivTX-16">
          <mxGeometry y="60" width="220" height="20" as="geometry" />
        </mxCell>
        <mxCell id="hdNzROFEQ-p7_2xRivTX-20" value="Visor Tap Control" style="text;strokeColor=none;fillColor=none;align=left;verticalAlign=middle;spacingLeft=4;spacingRight=4;overflow=hidden;points=[[0,0.5],[1,0.5]];portConstraint=eastwest;rotatable=0;whiteSpace=wrap;html=1;fontFamily=Helvetica;fontSize=11;fontColor=default;labelBackgroundColor=default;" vertex="1" parent="hdNzROFEQ-p7_2xRivTX-16">
          <mxGeometry y="80" width="220" height="20" as="geometry" />
        </mxCell>
        <mxCell id="hdNzROFEQ-p7_2xRivTX-38" value="Auto Display Brightness" style="text;strokeColor=none;fillColor=none;align=left;verticalAlign=middle;spacingLeft=4;spacingRight=4;overflow=hidden;points=[[0,0.5],[1,0.5]];portConstraint=eastwest;rotatable=0;whiteSpace=wrap;html=1;fontFamily=Helvetica;fontSize=11;fontColor=default;labelBackgroundColor=default;" vertex="1" parent="hdNzROFEQ-p7_2xRivTX-16">
          <mxGeometry y="100" width="220" height="20" as="geometry" />
        </mxCell>
        <mxCell id="hdNzROFEQ-p7_2xRivTX-36" value="Time Keeping" style="text;strokeColor=none;fillColor=none;align=left;verticalAlign=middle;spacingLeft=4;spacingRight=4;overflow=hidden;points=[[0,0.5],[1,0.5]];portConstraint=eastwest;rotatable=0;whiteSpace=wrap;html=1;fontFamily=Helvetica;fontSize=11;fontColor=default;labelBackgroundColor=default;" vertex="1" parent="hdNzROFEQ-p7_2xRivTX-16">
          <mxGeometry y="120" width="220" height="20" as="geometry" />
        </mxCell>
        <mxCell id="hdNzROFEQ-p7_2xRivTX-21" value="Sensor Array [2]" style="swimlane;fontStyle=0;childLayout=stackLayout;horizontal=1;startSize=20;horizontalStack=0;resizeParent=1;resizeParentMax=0;resizeLast=0;collapsible=0;marginBottom=0;whiteSpace=wrap;html=1;fontFamily=Helvetica;fontSize=11;fontColor=default;labelBackgroundColor=default;" vertex="1" parent="1">
          <mxGeometry x="1320" y="440" width="140" height="100" as="geometry" />
        </mxCell>
        <mxCell id="hdNzROFEQ-p7_2xRivTX-22" value="Accelerometer" style="text;strokeColor=none;fillColor=none;align=left;verticalAlign=middle;spacingLeft=4;spacingRight=4;overflow=hidden;points=[[0,0.5],[1,0.5]];portConstraint=eastwest;rotatable=0;whiteSpace=wrap;html=1;fontFamily=Helvetica;fontSize=11;fontColor=default;labelBackgroundColor=default;" vertex="1" parent="hdNzROFEQ-p7_2xRivTX-21">
          <mxGeometry y="20" width="140" height="20" as="geometry" />
        </mxCell>
        <mxCell id="hdNzROFEQ-p7_2xRivTX-23" value="Gyroscope" style="text;strokeColor=none;fillColor=none;align=left;verticalAlign=middle;spacingLeft=4;spacingRight=4;overflow=hidden;points=[[0,0.5],[1,0.5]];portConstraint=eastwest;rotatable=0;whiteSpace=wrap;html=1;fontFamily=Helvetica;fontSize=11;fontColor=default;labelBackgroundColor=default;" vertex="1" parent="hdNzROFEQ-p7_2xRivTX-21">
          <mxGeometry y="40" width="140" height="20" as="geometry" />
        </mxCell>
        <mxCell id="hdNzROFEQ-p7_2xRivTX-24" value="Magnetometer" style="text;strokeColor=none;fillColor=none;align=left;verticalAlign=middle;spacingLeft=4;spacingRight=4;overflow=hidden;points=[[0,0.5],[1,0.5]];portConstraint=eastwest;rotatable=0;whiteSpace=wrap;html=1;fontFamily=Helvetica;fontSize=11;fontColor=default;labelBackgroundColor=default;" vertex="1" parent="hdNzROFEQ-p7_2xRivTX-21">
          <mxGeometry y="60" width="140" height="20" as="geometry" />
        </mxCell>
        <mxCell id="hdNzROFEQ-p7_2xRivTX-33" value="GPS" style="text;strokeColor=none;fillColor=none;align=left;verticalAlign=middle;spacingLeft=4;spacingRight=4;overflow=hidden;points=[[0,0.5],[1,0.5]];portConstraint=eastwest;rotatable=0;whiteSpace=wrap;html=1;fontFamily=Helvetica;fontSize=11;fontColor=default;labelBackgroundColor=default;" vertex="1" parent="hdNzROFEQ-p7_2xRivTX-21">
          <mxGeometry y="80" width="140" height="20" as="geometry" />
        </mxCell>
        <mxCell id="hdNzROFEQ-p7_2xRivTX-25" value="Purpose" style="swimlane;fontStyle=0;childLayout=stackLayout;horizontal=1;startSize=20;horizontalStack=0;resizeParent=1;resizeParentMax=0;resizeLast=0;collapsible=0;marginBottom=0;whiteSpace=wrap;html=1;fontFamily=Helvetica;fontSize=11;fontColor=default;labelBackgroundColor=default;" vertex="1" parent="1">
          <mxGeometry x="1460" y="440" width="220" height="100" as="geometry" />
        </mxCell>
        <mxCell id="hdNzROFEQ-p7_2xRivTX-26" value="Animation" style="text;strokeColor=none;fillColor=none;align=left;verticalAlign=middle;spacingLeft=4;spacingRight=4;overflow=hidden;points=[[0,0.5],[1,0.5]];portConstraint=eastwest;rotatable=0;whiteSpace=wrap;html=1;fontFamily=Helvetica;fontSize=11;fontColor=default;labelBackgroundColor=default;" vertex="1" parent="hdNzROFEQ-p7_2xRivTX-25">
          <mxGeometry y="20" width="220" height="20" as="geometry" />
        </mxCell>
        <mxCell id="hdNzROFEQ-p7_2xRivTX-27" value="Animation" style="text;strokeColor=none;fillColor=none;align=left;verticalAlign=middle;spacingLeft=4;spacingRight=4;overflow=hidden;points=[[0,0.5],[1,0.5]];portConstraint=eastwest;rotatable=0;whiteSpace=wrap;html=1;fontFamily=Helvetica;fontSize=11;fontColor=default;labelBackgroundColor=default;" vertex="1" parent="hdNzROFEQ-p7_2xRivTX-25">
          <mxGeometry y="40" width="220" height="20" as="geometry" />
        </mxCell>
        <mxCell id="hdNzROFEQ-p7_2xRivTX-28" value="Animation" style="text;strokeColor=none;fillColor=none;align=left;verticalAlign=middle;spacingLeft=4;spacingRight=4;overflow=hidden;points=[[0,0.5],[1,0.5]];portConstraint=eastwest;rotatable=0;whiteSpace=wrap;html=1;fontFamily=Helvetica;fontSize=11;fontColor=default;labelBackgroundColor=default;" vertex="1" parent="hdNzROFEQ-p7_2xRivTX-25">
          <mxGeometry y="60" width="220" height="20" as="geometry" />
        </mxCell>
        <mxCell id="hdNzROFEQ-p7_2xRivTX-34" value="Position &amp;amp; time correction" style="text;strokeColor=none;fillColor=none;align=left;verticalAlign=middle;spacingLeft=4;spacingRight=4;overflow=hidden;points=[[0,0.5],[1,0.5]];portConstraint=eastwest;rotatable=0;whiteSpace=wrap;html=1;fontFamily=Helvetica;fontSize=11;fontColor=default;labelBackgroundColor=default;" vertex="1" parent="hdNzROFEQ-p7_2xRivTX-25">
          <mxGeometry y="80" width="220" height="20" as="geometry" />
        </mxCell>
        <mxCell id="hdNzROFEQ-p7_2xRivTX-41" value="Sensor Array [3]" style="swimlane;fontStyle=0;childLayout=stackLayout;horizontal=1;startSize=20;horizontalStack=0;resizeParent=1;resizeParentMax=0;resizeLast=0;collapsible=0;marginBottom=0;whiteSpace=wrap;html=1;fontFamily=Helvetica;fontSize=11;fontColor=default;labelBackgroundColor=default;" vertex="1" parent="1">
          <mxGeometry x="1320" y="560" width="140" height="60" as="geometry" />
        </mxCell>
        <mxCell id="hdNzROFEQ-p7_2xRivTX-58" value="Capacitive Touch" style="text;strokeColor=none;fillColor=none;align=left;verticalAlign=middle;spacingLeft=4;spacingRight=4;overflow=hidden;points=[[0,0.5],[1,0.5]];portConstraint=eastwest;rotatable=0;whiteSpace=wrap;html=1;fontFamily=Helvetica;fontSize=11;fontColor=default;labelBackgroundColor=default;" vertex="1" parent="hdNzROFEQ-p7_2xRivTX-41">
          <mxGeometry y="20" width="140" height="20" as="geometry" />
        </mxCell>
        <mxCell id="hdNzROFEQ-p7_2xRivTX-68" value="Hall Effect" style="text;strokeColor=none;fillColor=none;align=left;verticalAlign=middle;spacingLeft=4;spacingRight=4;overflow=hidden;points=[[0,0.5],[1,0.5]];portConstraint=eastwest;rotatable=0;whiteSpace=wrap;html=1;fontFamily=Helvetica;fontSize=11;fontColor=default;labelBackgroundColor=default;" vertex="1" parent="hdNzROFEQ-p7_2xRivTX-41">
          <mxGeometry y="40" width="140" height="20" as="geometry" />
        </mxCell>
        <mxCell id="hdNzROFEQ-p7_2xRivTX-45" value="Purpose" style="swimlane;fontStyle=0;childLayout=stackLayout;horizontal=1;startSize=20;horizontalStack=0;resizeParent=1;resizeParentMax=0;resizeLast=0;collapsible=0;marginBottom=0;whiteSpace=wrap;html=1;fontFamily=Helvetica;fontSize=11;fontColor=default;labelBackgroundColor=default;" vertex="1" parent="1">
          <mxGeometry x="1460" y="560" width="220" height="60" as="geometry" />
        </mxCell>
        <mxCell id="hdNzROFEQ-p7_2xRivTX-62" value="Boop Detection" style="text;strokeColor=none;fillColor=none;align=left;verticalAlign=middle;spacingLeft=4;spacingRight=4;overflow=hidden;points=[[0,0.5],[1,0.5]];portConstraint=eastwest;rotatable=0;whiteSpace=wrap;html=1;fontFamily=Helvetica;fontSize=11;fontColor=default;labelBackgroundColor=default;" vertex="1" parent="hdNzROFEQ-p7_2xRivTX-45">
          <mxGeometry y="20" width="220" height="20" as="geometry" />
        </mxCell>
        <mxCell id="hdNzROFEQ-p7_2xRivTX-69" value="Jaw Open (Magnet Hall Effect)" style="text;strokeColor=none;fillColor=none;align=left;verticalAlign=middle;spacingLeft=4;spacingRight=4;overflow=hidden;points=[[0,0.5],[1,0.5]];portConstraint=eastwest;rotatable=0;whiteSpace=wrap;html=1;fontFamily=Helvetica;fontSize=11;fontColor=default;labelBackgroundColor=default;" vertex="1" parent="hdNzROFEQ-p7_2xRivTX-45">
          <mxGeometry y="40" width="220" height="20" as="geometry" />
        </mxCell>
        <mxCell id="hdNzROFEQ-p7_2xRivTX-49" value="Sensor Array [4]" style="swimlane;fontStyle=0;childLayout=stackLayout;horizontal=1;startSize=20;horizontalStack=0;resizeParent=1;resizeParentMax=0;resizeLast=0;collapsible=0;marginBottom=0;whiteSpace=wrap;html=1;fontFamily=Helvetica;fontSize=11;fontColor=default;labelBackgroundColor=default;" vertex="1" parent="1">
          <mxGeometry x="1320" y="640" width="140" height="80" as="geometry" />
        </mxCell>
        <mxCell id="hdNzROFEQ-p7_2xRivTX-50" value="Voltmeter" style="text;strokeColor=none;fillColor=none;align=left;verticalAlign=middle;spacingLeft=4;spacingRight=4;overflow=hidden;points=[[0,0.5],[1,0.5]];portConstraint=eastwest;rotatable=0;whiteSpace=wrap;html=1;fontFamily=Helvetica;fontSize=11;fontColor=default;labelBackgroundColor=default;" vertex="1" parent="hdNzROFEQ-p7_2xRivTX-49">
          <mxGeometry y="20" width="140" height="20" as="geometry" />
        </mxCell>
        <mxCell id="hdNzROFEQ-p7_2xRivTX-51" value="Ammeter" style="text;strokeColor=none;fillColor=none;align=left;verticalAlign=middle;spacingLeft=4;spacingRight=4;overflow=hidden;points=[[0,0.5],[1,0.5]];portConstraint=eastwest;rotatable=0;whiteSpace=wrap;html=1;fontFamily=Helvetica;fontSize=11;fontColor=default;labelBackgroundColor=default;" vertex="1" parent="hdNzROFEQ-p7_2xRivTX-49">
          <mxGeometry y="40" width="140" height="20" as="geometry" />
        </mxCell>
        <mxCell id="hdNzROFEQ-p7_2xRivTX-52" value="Thermometer" style="text;strokeColor=none;fillColor=none;align=left;verticalAlign=middle;spacingLeft=4;spacingRight=4;overflow=hidden;points=[[0,0.5],[1,0.5]];portConstraint=eastwest;rotatable=0;whiteSpace=wrap;html=1;fontFamily=Helvetica;fontSize=11;fontColor=default;labelBackgroundColor=default;" vertex="1" parent="hdNzROFEQ-p7_2xRivTX-49">
          <mxGeometry y="60" width="140" height="20" as="geometry" />
        </mxCell>
        <mxCell id="hdNzROFEQ-p7_2xRivTX-53" value="Purpose" style="swimlane;fontStyle=0;childLayout=stackLayout;horizontal=1;startSize=20;horizontalStack=0;resizeParent=1;resizeParentMax=0;resizeLast=0;collapsible=0;marginBottom=0;whiteSpace=wrap;html=1;fontFamily=Helvetica;fontSize=11;fontColor=default;labelBackgroundColor=default;" vertex="1" parent="1">
          <mxGeometry x="1460" y="640" width="220" height="80" as="geometry" />
        </mxCell>
        <mxCell id="hdNzROFEQ-p7_2xRivTX-54" value="Safety" style="text;strokeColor=none;fillColor=none;align=left;verticalAlign=middle;spacingLeft=4;spacingRight=4;overflow=hidden;points=[[0,0.5],[1,0.5]];portConstraint=eastwest;rotatable=0;whiteSpace=wrap;html=1;fontFamily=Helvetica;fontSize=11;fontColor=default;labelBackgroundColor=default;" vertex="1" parent="hdNzROFEQ-p7_2xRivTX-53">
          <mxGeometry y="20" width="220" height="20" as="geometry" />
        </mxCell>
        <mxCell id="hdNzROFEQ-p7_2xRivTX-55" value="Safety" style="text;strokeColor=none;fillColor=none;align=left;verticalAlign=middle;spacingLeft=4;spacingRight=4;overflow=hidden;points=[[0,0.5],[1,0.5]];portConstraint=eastwest;rotatable=0;whiteSpace=wrap;html=1;fontFamily=Helvetica;fontSize=11;fontColor=default;labelBackgroundColor=default;" vertex="1" parent="hdNzROFEQ-p7_2xRivTX-53">
          <mxGeometry y="40" width="220" height="20" as="geometry" />
        </mxCell>
        <mxCell id="hdNzROFEQ-p7_2xRivTX-56" value="Safety" style="text;strokeColor=none;fillColor=none;align=left;verticalAlign=middle;spacingLeft=4;spacingRight=4;overflow=hidden;points=[[0,0.5],[1,0.5]];portConstraint=eastwest;rotatable=0;whiteSpace=wrap;html=1;fontFamily=Helvetica;fontSize=11;fontColor=default;labelBackgroundColor=default;" vertex="1" parent="hdNzROFEQ-p7_2xRivTX-53">
          <mxGeometry y="60" width="220" height="20" as="geometry" />
        </mxCell>
        <mxCell id="hdNzROFEQ-p7_2xRivTX-57" value="Sensor Array [5]" style="swimlane;fontStyle=0;childLayout=stackLayout;horizontal=1;startSize=20;horizontalStack=0;resizeParent=1;resizeParentMax=0;resizeLast=0;collapsible=0;marginBottom=0;whiteSpace=wrap;html=1;fontFamily=Helvetica;fontSize=11;fontColor=default;labelBackgroundColor=default;" vertex="1" parent="1">
          <mxGeometry x="1320" y="740" width="140" height="100" as="geometry" />
        </mxCell>
        <mxCell id="hdNzROFEQ-p7_2xRivTX-42" value="Microphone" style="text;strokeColor=none;fillColor=none;align=left;verticalAlign=middle;spacingLeft=4;spacingRight=4;overflow=hidden;points=[[0,0.5],[1,0.5]];portConstraint=eastwest;rotatable=0;whiteSpace=wrap;html=1;fontFamily=Helvetica;fontSize=11;fontColor=default;labelBackgroundColor=default;" vertex="1" parent="hdNzROFEQ-p7_2xRivTX-57">
          <mxGeometry y="20" width="140" height="20" as="geometry" />
        </mxCell>
        <mxCell id="hdNzROFEQ-p7_2xRivTX-43" value="Thermometer" style="text;strokeColor=none;fillColor=none;align=left;verticalAlign=middle;spacingLeft=4;spacingRight=4;overflow=hidden;points=[[0,0.5],[1,0.5]];portConstraint=eastwest;rotatable=0;whiteSpace=wrap;html=1;fontFamily=Helvetica;fontSize=11;fontColor=default;labelBackgroundColor=default;" vertex="1" parent="hdNzROFEQ-p7_2xRivTX-57">
          <mxGeometry y="40" width="140" height="20" as="geometry" />
        </mxCell>
        <mxCell id="hdNzROFEQ-p7_2xRivTX-44" value="Humidity" style="text;strokeColor=none;fillColor=none;align=left;verticalAlign=middle;spacingLeft=4;spacingRight=4;overflow=hidden;points=[[0,0.5],[1,0.5]];portConstraint=eastwest;rotatable=0;whiteSpace=wrap;html=1;fontFamily=Helvetica;fontSize=11;fontColor=default;labelBackgroundColor=default;" vertex="1" parent="hdNzROFEQ-p7_2xRivTX-57">
          <mxGeometry y="60" width="140" height="20" as="geometry" />
        </mxCell>
        <mxCell id="hdNzROFEQ-p7_2xRivTX-66" value="TOF" style="text;strokeColor=none;fillColor=none;align=left;verticalAlign=middle;spacingLeft=4;spacingRight=4;overflow=hidden;points=[[0,0.5],[1,0.5]];portConstraint=eastwest;rotatable=0;whiteSpace=wrap;html=1;fontFamily=Helvetica;fontSize=11;fontColor=default;labelBackgroundColor=default;" vertex="1" parent="hdNzROFEQ-p7_2xRivTX-57">
          <mxGeometry y="80" width="140" height="20" as="geometry" />
        </mxCell>
        <mxCell id="hdNzROFEQ-p7_2xRivTX-61" value="Purpose" style="swimlane;fontStyle=0;childLayout=stackLayout;horizontal=1;startSize=20;horizontalStack=0;resizeParent=1;resizeParentMax=0;resizeLast=0;collapsible=0;marginBottom=0;whiteSpace=wrap;html=1;fontFamily=Helvetica;fontSize=11;fontColor=default;labelBackgroundColor=default;" vertex="1" parent="1">
          <mxGeometry x="1460" y="740" width="220" height="100" as="geometry" />
        </mxCell>
        <mxCell id="hdNzROFEQ-p7_2xRivTX-46" value="Animation &amp;amp; Bluetooth Audio" style="text;strokeColor=none;fillColor=none;align=left;verticalAlign=middle;spacingLeft=4;spacingRight=4;overflow=hidden;points=[[0,0.5],[1,0.5]];portConstraint=eastwest;rotatable=0;whiteSpace=wrap;html=1;fontFamily=Helvetica;fontSize=11;fontColor=default;labelBackgroundColor=default;" vertex="1" parent="hdNzROFEQ-p7_2xRivTX-61">
          <mxGeometry y="20" width="220" height="20" as="geometry" />
        </mxCell>
        <mxCell id="hdNzROFEQ-p7_2xRivTX-47" value="Ventillation" style="text;strokeColor=none;fillColor=none;align=left;verticalAlign=middle;spacingLeft=4;spacingRight=4;overflow=hidden;points=[[0,0.5],[1,0.5]];portConstraint=eastwest;rotatable=0;whiteSpace=wrap;html=1;fontFamily=Helvetica;fontSize=11;fontColor=default;labelBackgroundColor=default;" vertex="1" parent="hdNzROFEQ-p7_2xRivTX-61">
          <mxGeometry y="40" width="220" height="20" as="geometry" />
        </mxCell>
        <mxCell id="hdNzROFEQ-p7_2xRivTX-48" value="Ventillation" style="text;strokeColor=none;fillColor=none;align=left;verticalAlign=middle;spacingLeft=4;spacingRight=4;overflow=hidden;points=[[0,0.5],[1,0.5]];portConstraint=eastwest;rotatable=0;whiteSpace=wrap;html=1;fontFamily=Helvetica;fontSize=11;fontColor=default;labelBackgroundColor=default;" vertex="1" parent="hdNzROFEQ-p7_2xRivTX-61">
          <mxGeometry y="60" width="220" height="20" as="geometry" />
        </mxCell>
        <mxCell id="hdNzROFEQ-p7_2xRivTX-67" value="User Detection" style="text;strokeColor=none;fillColor=none;align=left;verticalAlign=middle;spacingLeft=4;spacingRight=4;overflow=hidden;points=[[0,0.5],[1,0.5]];portConstraint=eastwest;rotatable=0;whiteSpace=wrap;html=1;fontFamily=Helvetica;fontSize=11;fontColor=default;labelBackgroundColor=default;" vertex="1" parent="hdNzROFEQ-p7_2xRivTX-61">
          <mxGeometry y="80" width="220" height="20" as="geometry" />
        </mxCell>
      </root>
    </mxGraphModel>
  </diagram>
</mxfile>
